<svg xmlns="http://www.w3.org/2000/svg" width="16" height="16">
<style>path{fill:#000}@media(prefers-color-scheme:dark){path{fill:#fff}}</style>
<path d="M5.02,14.906c0.496,0.015,0.966,0.069,1.421,0.215c0.151,0.049,0.301,0.076,0.46,0.025c0.193-0.062,0.323-0.186,0.385-0.377
	c0.031-0.096,0.04-0.196,0.04-0.298c-0.001-1.339-0.001-2.678-0.001-4.016c0-0.243-0.088-0.438-0.296-0.571
	C6.93,9.82,6.815,9.806,6.704,9.793C6.656,9.786,6.644,9.78,6.643,9.73C6.636,9.503,6.551,9.315,6.354,9.188
	c-0.109-0.07-0.231-0.091-0.355-0.1C5.445,9.046,4.905,9.111,4.384,9.309c-0.25,0.095-0.475,0.23-0.68,0.4
	C3.66,9.745,3.634,9.744,3.593,9.708C3.189,9.368,2.71,9.209,2.2,9.12C1.905,9.069,1.609,9.074,1.313,9.085
	C1.251,9.088,1.191,9.099,1.115,9.121c-0.257-2.34,0.289-4.448,1.811-6.256C4.445,1.061,6.411,0.134,8.771,0
	c-1.055,1.728-1.55,3.576-1.233,5.585c0.316,1.996,1.246,3.673,2.81,4.961c1.56,1.284,3.36,1.918,5.385,1.856
	C13.398,16.041,8.528,17.003,5.02,14.906z"/>
<path d="M6.935,10.439c0-0.17-0.085-0.254-0.254-0.255c-0.119-0.001-0.239-0.004-0.358,0.001c-0.057,0.002-0.07-0.017-0.069-0.071
	c0.004-0.127,0.003-0.255,0.001-0.381c-0.003-0.151-0.081-0.234-0.231-0.25C5.706,9.449,5.39,9.46,5.075,9.516
	C4.53,9.614,4.051,9.835,3.686,10.265c-0.039,0.046-0.054,0.025-0.08-0.006c-0.189-0.224-0.419-0.396-0.683-0.521
	C2.399,9.489,1.844,9.43,1.273,9.483C1.121,9.496,1.044,9.58,1.041,9.731C1.04,9.859,1.039,9.986,1.043,10.113
	c0.001,0.054-0.01,0.074-0.069,0.071c-0.116-0.005-0.234-0.001-0.35-0.001c-0.18,0-0.273,0.094-0.273,0.275v4.055
	c0,0.214,0.138,0.314,0.34,0.251c0.44-0.135,0.89-0.218,1.35-0.239c0.508-0.024,1.006,0.024,1.479,0.229
	c0.09,0.039,0.17,0.039,0.259,0c0.229-0.101,0.469-0.165,0.718-0.198c0.718-0.092,1.416,0.002,2.104,0.208
	c0.214,0.064,0.336-0.024,0.336-0.246v-2.02C6.935,11.813,6.935,11.125,6.935,10.439z M2.131,14.08
	c-0.425,0.011-0.844,0.071-1.256,0.176C0.82,14.27,0.8,14.273,0.8,14.203c0.002-1.169,0.002-2.338,0-3.506
	c0-0.064,0.02-0.073,0.075-0.071c0.166,0.002,0.166,0,0.166,0.164v2.719c0,0.212,0.088,0.291,0.299,0.274
	c0.505-0.04,0.994,0.015,1.451,0.249c0.049,0.025,0.095,0.054,0.143,0.081C2.665,14.089,2.399,14.073,2.131,14.08z M3.428,13.899
	c0,0.007-0.003,0.014-0.005,0.031c-0.489-0.42-1.061-0.575-1.68-0.6c-0.064-0.002-0.128-0.005-0.191,0
	c-0.058,0.005-0.07-0.015-0.07-0.07c0.003-0.475,0.001-0.949,0.001-1.424c0-0.618,0.001-1.235-0.001-1.854
	c0-0.057,0.011-0.075,0.073-0.076c0.474-0.005,0.929,0.069,1.341,0.319c0.205,0.124,0.373,0.288,0.501,0.49
	c0.019,0.029,0.031,0.057,0.031,0.095C3.428,11.841,3.429,12.87,3.428,13.899z M3.87,13.936v-0.085c0-1.005,0-2.01-0.001-3.014
	c0-0.054,0.014-0.097,0.043-0.14c0.231-0.346,0.561-0.555,0.953-0.674c0.286-0.087,0.58-0.118,0.879-0.115
	c0.06,0.001,0.073,0.019,0.073,0.078c-0.003,1.09-0.003,2.179,0,3.269c0,0.065-0.017,0.078-0.08,0.076
	c-0.5-0.011-0.981,0.071-1.43,0.303C4.154,13.713,4.011,13.809,3.87,13.936z M6.413,14.256c-0.521-0.132-1.051-0.195-1.59-0.172
	c-0.154,0.006-0.306,0.021-0.458,0.04c0.279-0.194,0.591-0.284,0.92-0.328c0.238-0.033,0.475-0.035,0.714-0.009
	c0.135,0.015,0.239-0.066,0.256-0.2c0.004-0.026,0.003-0.052,0.003-0.079c0-0.933,0.001-1.866-0.001-2.799
	c0-0.064,0.012-0.085,0.08-0.084c0.16,0.005,0.16,0.001,0.16,0.161c0,1.135-0.001,2.269,0.003,3.404
	C6.499,14.269,6.48,14.273,6.413,14.256z"/></svg>